<mxfile host="app.diagrams.net" modified="2021-06-07T13:02:54.314Z" agent="5.0 (Windows NT 10.0; Win64; x64) AppleWebKit/537.36 (KHTML, like Gecko) Chrome/91.0.4472.77 Safari/537.36" etag="YmhKv5gNz4tiaAqAVzLO" version="14.7.6" type="github">
  <diagram id="DtdZLi7CYvLeyxV55HMq" name="Page-1">
    <mxGraphModel dx="2031" dy="1007" grid="1" gridSize="10" guides="1" tooltips="1" connect="1" arrows="1" fold="1" page="1" pageScale="1" pageWidth="827" pageHeight="1169" math="0" shadow="0">
      <root>
        <mxCell id="0" />
        <mxCell id="1" parent="0" />
        <mxCell id="o0tRzlOy_sPSS6rWLoKo-32" value="" style="group" vertex="1" connectable="0" parent="1">
          <mxGeometry x="240" y="190" width="390" height="460" as="geometry" />
        </mxCell>
        <mxCell id="o0tRzlOy_sPSS6rWLoKo-9" value="" style="group" vertex="1" connectable="0" parent="o0tRzlOy_sPSS6rWLoKo-32">
          <mxGeometry width="390" height="460" as="geometry" />
        </mxCell>
        <mxCell id="o0tRzlOy_sPSS6rWLoKo-1" value="" style="ellipse;whiteSpace=wrap;html=1;aspect=fixed;strokeWidth=20;" vertex="1" parent="o0tRzlOy_sPSS6rWLoKo-9">
          <mxGeometry y="110" width="130" height="130" as="geometry" />
        </mxCell>
        <mxCell id="o0tRzlOy_sPSS6rWLoKo-3" value="" style="ellipse;whiteSpace=wrap;html=1;aspect=fixed;strokeWidth=20;" vertex="1" parent="o0tRzlOy_sPSS6rWLoKo-9">
          <mxGeometry x="130" y="110" width="130" height="130" as="geometry" />
        </mxCell>
        <mxCell id="o0tRzlOy_sPSS6rWLoKo-6" value="" style="endArrow=none;html=1;strokeColor=#FFFFFF;strokeWidth=9;" edge="1" parent="o0tRzlOy_sPSS6rWLoKo-9">
          <mxGeometry width="50" height="50" relative="1" as="geometry">
            <mxPoint x="65" y="260" as="sourcePoint" />
            <mxPoint x="65" y="80" as="targetPoint" />
          </mxGeometry>
        </mxCell>
        <mxCell id="o0tRzlOy_sPSS6rWLoKo-7" value="" style="endArrow=none;html=1;strokeColor=#FFFFFF;strokeWidth=9;" edge="1" parent="o0tRzlOy_sPSS6rWLoKo-9">
          <mxGeometry width="50" height="50" relative="1" as="geometry">
            <mxPoint x="195" y="270" as="sourcePoint" />
            <mxPoint x="195" y="90" as="targetPoint" />
          </mxGeometry>
        </mxCell>
        <mxCell id="o0tRzlOy_sPSS6rWLoKo-81" value="" style="group" vertex="1" connectable="0" parent="o0tRzlOy_sPSS6rWLoKo-9">
          <mxGeometry y="130" width="390" height="330" as="geometry" />
        </mxCell>
        <mxCell id="o0tRzlOy_sPSS6rWLoKo-82" value="" style="group" vertex="1" connectable="0" parent="o0tRzlOy_sPSS6rWLoKo-81">
          <mxGeometry width="260" height="320" as="geometry" />
        </mxCell>
        <mxCell id="o0tRzlOy_sPSS6rWLoKo-93" value="" style="group" vertex="1" connectable="0" parent="o0tRzlOy_sPSS6rWLoKo-82">
          <mxGeometry y="80" width="260" height="190" as="geometry" />
        </mxCell>
        <mxCell id="o0tRzlOy_sPSS6rWLoKo-83" value="" style="ellipse;whiteSpace=wrap;html=1;aspect=fixed;strokeWidth=20;" vertex="1" parent="o0tRzlOy_sPSS6rWLoKo-93">
          <mxGeometry y="30" width="130" height="130" as="geometry" />
        </mxCell>
        <mxCell id="o0tRzlOy_sPSS6rWLoKo-84" value="" style="ellipse;whiteSpace=wrap;html=1;aspect=fixed;strokeWidth=20;" vertex="1" parent="o0tRzlOy_sPSS6rWLoKo-93">
          <mxGeometry x="130" y="30" width="130" height="130" as="geometry" />
        </mxCell>
        <mxCell id="o0tRzlOy_sPSS6rWLoKo-85" value="" style="endArrow=none;html=1;strokeColor=#FFFFFF;strokeWidth=9;" edge="1" parent="o0tRzlOy_sPSS6rWLoKo-93">
          <mxGeometry width="50" height="50" relative="1" as="geometry">
            <mxPoint x="65" y="180" as="sourcePoint" />
            <mxPoint x="65" as="targetPoint" />
          </mxGeometry>
        </mxCell>
        <mxCell id="o0tRzlOy_sPSS6rWLoKo-86" value="" style="endArrow=none;html=1;strokeColor=#FFFFFF;strokeWidth=9;" edge="1" parent="o0tRzlOy_sPSS6rWLoKo-93">
          <mxGeometry width="50" height="50" relative="1" as="geometry">
            <mxPoint x="195" y="190" as="sourcePoint" />
            <mxPoint x="195" y="10" as="targetPoint" />
          </mxGeometry>
        </mxCell>
        <mxCell id="o0tRzlOy_sPSS6rWLoKo-87" value="" style="ellipse;whiteSpace=wrap;html=1;aspect=fixed;strokeWidth=20;" vertex="1" parent="o0tRzlOy_sPSS6rWLoKo-81">
          <mxGeometry x="260" y="110" width="130" height="130" as="geometry" />
        </mxCell>
        <mxCell id="o0tRzlOy_sPSS6rWLoKo-88" value="" style="endArrow=none;html=1;strokeColor=#FFFFFF;strokeWidth=9;" edge="1" parent="o0tRzlOy_sPSS6rWLoKo-81">
          <mxGeometry width="50" height="50" relative="1" as="geometry">
            <mxPoint x="325" y="260" as="sourcePoint" />
            <mxPoint x="325" y="90" as="targetPoint" />
          </mxGeometry>
        </mxCell>
        <mxCell id="o0tRzlOy_sPSS6rWLoKo-89" value="" style="endArrow=none;html=1;strokeColor=#FFFFFF;strokeWidth=9;" edge="1" parent="o0tRzlOy_sPSS6rWLoKo-81">
          <mxGeometry width="50" height="50" relative="1" as="geometry">
            <mxPoint x="40" y="175" as="sourcePoint" />
            <mxPoint x="320" y="175" as="targetPoint" />
          </mxGeometry>
        </mxCell>
        <mxCell id="o0tRzlOy_sPSS6rWLoKo-17" value="" style="ellipse;whiteSpace=wrap;html=1;aspect=fixed;strokeWidth=20;" vertex="1" parent="o0tRzlOy_sPSS6rWLoKo-32">
          <mxGeometry x="260" y="110" width="130" height="130" as="geometry" />
        </mxCell>
        <mxCell id="o0tRzlOy_sPSS6rWLoKo-18" value="" style="endArrow=none;html=1;strokeColor=#FFFFFF;strokeWidth=9;" edge="1" parent="o0tRzlOy_sPSS6rWLoKo-32">
          <mxGeometry width="50" height="50" relative="1" as="geometry">
            <mxPoint x="325" y="260" as="sourcePoint" />
            <mxPoint x="325" y="90" as="targetPoint" />
          </mxGeometry>
        </mxCell>
        <mxCell id="o0tRzlOy_sPSS6rWLoKo-19" value="" style="endArrow=none;html=1;strokeColor=#FFFFFF;strokeWidth=9;" edge="1" parent="o0tRzlOy_sPSS6rWLoKo-32">
          <mxGeometry width="50" height="50" relative="1" as="geometry">
            <mxPoint x="40" y="175" as="sourcePoint" />
            <mxPoint x="320" y="175" as="targetPoint" />
          </mxGeometry>
        </mxCell>
        <mxCell id="o0tRzlOy_sPSS6rWLoKo-20" value="R" style="text;html=1;strokeColor=none;fillColor=none;align=center;verticalAlign=middle;whiteSpace=wrap;rounded=0;strokeWidth=5;fontSize=100;labelBackgroundColor=none;labelBorderColor=none;fontStyle=1" vertex="1" parent="o0tRzlOy_sPSS6rWLoKo-32">
          <mxGeometry y="115" width="130" height="120" as="geometry" />
        </mxCell>
        <mxCell id="o0tRzlOy_sPSS6rWLoKo-21" value="E" style="text;html=1;strokeColor=none;fillColor=none;align=center;verticalAlign=middle;whiteSpace=wrap;rounded=0;strokeWidth=5;fontSize=100;labelBackgroundColor=none;labelBorderColor=none;fontStyle=1" vertex="1" parent="o0tRzlOy_sPSS6rWLoKo-32">
          <mxGeometry x="130" y="115" width="130" height="120" as="geometry" />
        </mxCell>
        <mxCell id="o0tRzlOy_sPSS6rWLoKo-22" value="N" style="text;html=1;strokeColor=none;fillColor=none;align=center;verticalAlign=middle;whiteSpace=wrap;rounded=0;strokeWidth=5;fontSize=100;labelBackgroundColor=none;labelBorderColor=none;fontStyle=1" vertex="1" parent="o0tRzlOy_sPSS6rWLoKo-32">
          <mxGeometry x="260" y="115" width="130" height="120" as="geometry" />
        </mxCell>
        <mxCell id="o0tRzlOy_sPSS6rWLoKo-94" value="" style="group" vertex="1" connectable="0" parent="o0tRzlOy_sPSS6rWLoKo-32">
          <mxGeometry y="-130" width="390" height="330" as="geometry" />
        </mxCell>
        <mxCell id="o0tRzlOy_sPSS6rWLoKo-95" value="" style="group" vertex="1" connectable="0" parent="o0tRzlOy_sPSS6rWLoKo-94">
          <mxGeometry width="260" height="320" as="geometry" />
        </mxCell>
        <mxCell id="o0tRzlOy_sPSS6rWLoKo-96" value="" style="group" vertex="1" connectable="0" parent="o0tRzlOy_sPSS6rWLoKo-95">
          <mxGeometry y="80" width="260" height="190" as="geometry" />
        </mxCell>
        <mxCell id="o0tRzlOy_sPSS6rWLoKo-97" value="" style="ellipse;whiteSpace=wrap;html=1;aspect=fixed;strokeWidth=20;" vertex="1" parent="o0tRzlOy_sPSS6rWLoKo-96">
          <mxGeometry y="30" width="130" height="130" as="geometry" />
        </mxCell>
        <mxCell id="o0tRzlOy_sPSS6rWLoKo-98" value="" style="ellipse;whiteSpace=wrap;html=1;aspect=fixed;strokeWidth=20;" vertex="1" parent="o0tRzlOy_sPSS6rWLoKo-96">
          <mxGeometry x="130" y="30" width="130" height="130" as="geometry" />
        </mxCell>
        <mxCell id="o0tRzlOy_sPSS6rWLoKo-99" value="" style="endArrow=none;html=1;strokeColor=#FFFFFF;strokeWidth=9;" edge="1" parent="o0tRzlOy_sPSS6rWLoKo-96">
          <mxGeometry width="50" height="50" relative="1" as="geometry">
            <mxPoint x="65" y="180" as="sourcePoint" />
            <mxPoint x="65" as="targetPoint" />
          </mxGeometry>
        </mxCell>
        <mxCell id="o0tRzlOy_sPSS6rWLoKo-100" value="" style="endArrow=none;html=1;strokeColor=#FFFFFF;strokeWidth=9;" edge="1" parent="o0tRzlOy_sPSS6rWLoKo-96">
          <mxGeometry width="50" height="50" relative="1" as="geometry">
            <mxPoint x="195" y="170" as="sourcePoint" />
            <mxPoint x="195" y="10" as="targetPoint" />
          </mxGeometry>
        </mxCell>
        <mxCell id="o0tRzlOy_sPSS6rWLoKo-101" value="" style="ellipse;whiteSpace=wrap;html=1;aspect=fixed;strokeWidth=20;" vertex="1" parent="o0tRzlOy_sPSS6rWLoKo-94">
          <mxGeometry x="260" y="110" width="130" height="130" as="geometry" />
        </mxCell>
        <mxCell id="o0tRzlOy_sPSS6rWLoKo-102" value="" style="endArrow=none;html=1;strokeColor=#FFFFFF;strokeWidth=9;" edge="1" parent="o0tRzlOy_sPSS6rWLoKo-94">
          <mxGeometry width="50" height="50" relative="1" as="geometry">
            <mxPoint x="325" y="260" as="sourcePoint" />
            <mxPoint x="325" y="90" as="targetPoint" />
          </mxGeometry>
        </mxCell>
        <mxCell id="o0tRzlOy_sPSS6rWLoKo-103" value="" style="endArrow=none;html=1;strokeColor=#FFFFFF;strokeWidth=9;" edge="1" parent="o0tRzlOy_sPSS6rWLoKo-94">
          <mxGeometry width="50" height="50" relative="1" as="geometry">
            <mxPoint x="40" y="175" as="sourcePoint" />
            <mxPoint x="320" y="175" as="targetPoint" />
          </mxGeometry>
        </mxCell>
        <mxCell id="o0tRzlOy_sPSS6rWLoKo-105" value="" style="rounded=0;whiteSpace=wrap;html=1;labelBackgroundColor=none;fontSize=100;strokeWidth=5;strokeColor=none;" vertex="1" parent="1">
          <mxGeometry x="210" y="140" width="100" height="99" as="geometry" />
        </mxCell>
        <mxCell id="o0tRzlOy_sPSS6rWLoKo-106" value="" style="rounded=0;whiteSpace=wrap;html=1;labelBackgroundColor=none;fontSize=100;strokeWidth=5;strokeColor=none;" vertex="1" parent="1">
          <mxGeometry x="560" y="150" width="110" height="90" as="geometry" />
        </mxCell>
        <mxCell id="o0tRzlOy_sPSS6rWLoKo-107" value="" style="rounded=0;whiteSpace=wrap;html=1;labelBackgroundColor=none;fontSize=100;strokeWidth=5;strokeColor=none;" vertex="1" parent="1">
          <mxGeometry x="560" y="491" width="100" height="89" as="geometry" />
        </mxCell>
        <mxCell id="o0tRzlOy_sPSS6rWLoKo-108" value="" style="rounded=0;whiteSpace=wrap;html=1;labelBackgroundColor=none;fontSize=100;strokeWidth=5;strokeColor=none;" vertex="1" parent="1">
          <mxGeometry x="210" y="491" width="100" height="89" as="geometry" />
        </mxCell>
        <mxCell id="o0tRzlOy_sPSS6rWLoKo-109" value="" style="endArrow=none;html=1;strokeColor=#FFFFFF;strokeWidth=9;" edge="1" parent="1">
          <mxGeometry width="50" height="50" relative="1" as="geometry">
            <mxPoint x="210" y="364" as="sourcePoint" />
            <mxPoint x="270" y="364" as="targetPoint" />
          </mxGeometry>
        </mxCell>
        <mxCell id="o0tRzlOy_sPSS6rWLoKo-110" value="" style="endArrow=none;html=1;strokeColor=#FFFFFF;strokeWidth=9;" edge="1" parent="1">
          <mxGeometry width="50" height="50" relative="1" as="geometry">
            <mxPoint x="610" y="365" as="sourcePoint" />
            <mxPoint x="670" y="365" as="targetPoint" />
          </mxGeometry>
        </mxCell>
        <mxCell id="o0tRzlOy_sPSS6rWLoKo-111" value="" style="whiteSpace=wrap;html=1;aspect=fixed;labelBackgroundColor=none;fontSize=100;strokeWidth=20;rotation=-45;fillColor=none;" vertex="1" parent="1">
          <mxGeometry x="208.86" y="140.09" width="452.84" height="452.84" as="geometry" />
        </mxCell>
      </root>
    </mxGraphModel>
  </diagram>
</mxfile>
